<svg xmlns="http://www.w3.org/2000/svg" viewBox="0 0 900 660" font-family="Arial, Helvetica, sans-serif">
  <defs>
    <marker id="arrow" markerWidth="10" markerHeight="7" refX="10" refY="3.5" orient="auto">
      <polygon points="0 0, 10 3.5, 0 7" fill="#444"/>
    </marker>
    <marker id="arrow-red" markerWidth="10" markerHeight="7" refX="10" refY="3.5" orient="auto">
      <polygon points="0 0, 10 3.5, 0 7" fill="#b91c1c"/>
    </marker>
  </defs>

  <!-- Background -->
  <rect width="900" height="660" fill="#f8f9fa" rx="8"/>

  <!-- Title -->
  <text x="450" y="38" text-anchor="middle" font-size="20" font-weight="bold" fill="#1a1a1a">The Influence Loop</text>

  <!-- DEEP GREEN box -->
  <rect x="340" y="60" width="220" height="60" rx="6" fill="#1e3a5f" stroke="#0f2640" stroke-width="2"/>
  <text x="450" y="87" text-anchor="middle" font-size="16" font-weight="bold" fill="white">Deep Green</text>
  <text x="450" y="107" text-anchor="middle" font-size="13" fill="#b0c4de">$120M data center</text>

  <!-- BELLWETHER box -->
  <rect x="340" y="170" width="220" height="60" rx="6" fill="#2d5f2d" stroke="#1a3d1a" stroke-width="2"/>
  <text x="450" y="197" text-anchor="middle" font-size="16" font-weight="bold" fill="white">Bellwether PR</text>
  <text x="450" y="217" text-anchor="middle" font-size="13" fill="#b0deb0">Josh Hovey, sole director</text>

  <!-- Arrow: Deep Green → Bellwether -->
  <line x1="450" y1="120" x2="450" y2="164" stroke="#444" stroke-width="2.5" marker-end="url(#arrow)"/>
  <text x="465" y="148" font-size="13" fill="#444">pays for PR</text>

  <!-- JOSH HOVEY hub circle -->
  <circle cx="450" cy="310" r="42" fill="#7c3aed" stroke="#5b21b6" stroke-width="2"/>
  <text x="450" y="305" text-anchor="middle" font-size="15" font-weight="bold" fill="white">Josh</text>
  <text x="450" y="323" text-anchor="middle" font-size="15" font-weight="bold" fill="white">Hovey</text>

  <!-- Arrow: Bellwether → Hovey -->
  <line x1="450" y1="230" x2="450" y2="264" stroke="#444" stroke-width="2.5" marker-end="url(#arrow)"/>
  <text x="465" y="253" font-size="13" fill="#444">sole director</text>

  <!-- LRC-PAC box -->
  <rect x="640" y="280" width="220" height="60" rx="6" fill="#b45309" stroke="#92400e" stroke-width="2"/>
  <text x="750" y="305" text-anchor="middle" font-size="16" font-weight="bold" fill="white">LRC-PAC</text>
  <text x="750" y="325" text-anchor="middle" font-size="13" fill="#fde68a">MiTN Committee 000516</text>

  <!-- Arrow: Hovey → LRC-PAC -->
  <line x1="492" y1="305" x2="634" y2="305" stroke="#444" stroke-width="2.5" marker-end="url(#arrow)"/>
  <text x="560" y="297" font-size="13" fill="#444">sits on committee</text>

  <!-- MAYOR SCHOR box -->
  <rect x="640" y="400" width="220" height="60" rx="6" fill="#0e7490" stroke="#0c5e73" stroke-width="2"/>
  <text x="750" y="425" text-anchor="middle" font-size="16" font-weight="bold" fill="white">Mayor Schor</text>
  <text x="750" y="445" text-anchor="middle" font-size="13" fill="#a5f3fc">appoints commissioners</text>

  <!-- Arrow: LRC-PAC → Mayor -->
  <line x1="750" y1="340" x2="750" y2="394" stroke="#b91c1c" stroke-width="2.5" marker-end="url(#arrow-red)"/>
  <text x="765" y="374" font-size="13" fill="#b91c1c" font-weight="bold">$1,500</text>

  <!-- PLANNING COMMISSION box -->
  <rect x="340" y="400" width="220" height="60" rx="6" fill="#6b21a8" stroke="#581c87" stroke-width="2"/>
  <text x="450" y="422" text-anchor="middle" font-size="15" font-weight="bold" fill="white">Planning Commission</text>
  <text x="450" y="442" text-anchor="middle" font-size="13" fill="#d8b4fe">reviews rezoning</text>

  <!-- Arrow: Mayor → PC -->
  <line x1="640" y1="430" x2="566" y2="430" stroke="#444" stroke-width="2.5" marker-end="url(#arrow)"/>
  <text x="595" y="422" font-size="13" fill="#444">appoints</text>

  <!-- Arrow: Hovey was on PC (dashed) -->
  <line x1="425" y1="352" x2="425" y2="394" stroke="#7c3aed" stroke-width="2.5" stroke-dasharray="6,4" marker-end="url(#arrow)"/>
  <text x="340" y="378" font-size="13" fill="#7c3aed" font-weight="bold">served on</text>

  <!-- Arrow: Hovey lobbied PC -->
  <line x1="475" y1="352" x2="475" y2="394" stroke="#b91c1c" stroke-width="2.5" marker-end="url(#arrow-red)"/>
  <text x="490" y="378" font-size="13" fill="#b91c1c" font-weight="bold">then lobbied</text>

  <!-- CITY COUNCIL box -->
  <rect x="40" y="400" width="220" height="60" rx="6" fill="#1e3a5f" stroke="#0f2640" stroke-width="2"/>
  <text x="150" y="425" text-anchor="middle" font-size="16" font-weight="bold" fill="white">City Council</text>
  <text x="150" y="445" text-anchor="middle" font-size="13" fill="#b0c4de">votes on land sale + rezoning</text>

  <!-- Arrow: PC → Council -->
  <line x1="340" y1="435" x2="266" y2="435" stroke="#444" stroke-width="2.5" marker-end="url(#arrow)"/>
  <text x="296" y="425" font-size="13" fill="#444">recommends</text>

  <!-- Arrow: LRC-PAC → Council (routed below) -->
  <path d="M 750 340 L 750 490 L 150 490 L 150 466" stroke="#b91c1c" stroke-width="2.5" marker-end="url(#arrow-red)" fill="none"/>
  <text x="450" y="485" text-anchor="middle" font-size="14" fill="#b91c1c" font-weight="bold">endorsed 6 of 8 Council members</text>

  <!-- Arrow: Council approves Deep Green (closing the loop) -->
  <path d="M 50 400 L 50 90 L 334 90" stroke="#444" stroke-width="2" stroke-dasharray="8,4" marker-end="url(#arrow)" fill="none"/>
  <text x="60" y="240" font-size="13" fill="#444" transform="rotate(-90, 60, 240)">votes on project</text>

  <!-- Key dates -->
  <rect x="40" y="520" width="820" height="80" rx="6" fill="#e5e7eb" stroke="#d1d5db" stroke-width="1"/>
  <text x="60" y="545" font-size="14" font-weight="bold" fill="#374151">Key Dates</text>
  <text x="60" y="565" font-size="12" fill="#374151">Apr 2025: Secret negotiations begin (WKAR) | Jun 3: Hovey last confirmed on PC (CivicClerk)</text>
  <text x="60" y="583" font-size="12" fill="#374151">Oct 8: Hovey's claimed first contact (MI Advance) | Nov 5: Hovey lobbies former colleagues (CivicClerk)</text>

  <!-- Source -->
  <text x="450" y="645" text-anchor="middle" font-size="11" fill="#6b7280">Sources: MiTN Committee 000516 | CivicClerk events 7387, 7597, 7678, 7768, 8189 | bellwetherpr.com | WKAR | Michigan Advance</text>
</svg>