<svg xmlns="http://www.w3.org/2000/svg" viewBox="0 0 880 420" font-family="Arial, Helvetica, sans-serif">
  <rect width="880" height="420" fill="#f8f9fa" rx="8"/>

  <text x="440" y="35" text-anchor="middle" font-size="18" font-weight="bold" fill="#1a1a1a">Three People, Six Roles</text>
  <text x="440" y="55" text-anchor="middle" font-size="13" fill="#666">No firewall separates political spending from project advocacy.</text>

  <!-- Column headers -->
  <rect x="210" y="72" width="160" height="30" rx="4" fill="#1e3a5f"/>
  <text x="290" y="92" text-anchor="middle" font-size="13" font-weight="bold" fill="white">Chamber Role</text>

  <rect x="390" y="72" width="160" height="30" rx="4" fill="#b45309"/>
  <text x="470" y="92" text-anchor="middle" font-size="13" font-weight="bold" fill="white">PAC Role</text>

  <rect x="570" y="72" width="200" height="30" rx="4" fill="#991b1b"/>
  <text x="670" y="92" text-anchor="middle" font-size="13" font-weight="bold" fill="white">Project Advocacy</text>

  <!-- Daman row -->
  <rect x="20" y="115" width="170" height="70" rx="6" fill="#7c3aed" stroke="#5b21b6" stroke-width="2"/>
  <text x="105" y="143" text-anchor="middle" font-size="15" font-weight="bold" fill="white">Tim Daman</text>
  <text x="105" y="163" text-anchor="middle" font-size="11" fill="#d8b4fe">$178,557/yr compensation</text>

  <rect x="210" y="115" width="160" height="70" rx="4" fill="#e8edf3" stroke="#1e3a5f" stroke-width="1.5"/>
  <text x="290" y="143" text-anchor="middle" font-size="13" font-weight="bold" fill="#1e3a5f">President</text>
  <text x="290" y="160" text-anchor="middle" font-size="13" font-weight="bold" fill="#1e3a5f">&amp; CEO</text>
  <text x="290" y="177" text-anchor="middle" font-size="11" fill="#555">since 2005</text>

  <rect x="390" y="115" width="160" height="70" rx="4" fill="#fef3e2" stroke="#b45309" stroke-width="1.5"/>
  <text x="470" y="148" text-anchor="middle" font-size="13" font-weight="bold" fill="#b45309">Treasurer</text>
  <text x="470" y="168" text-anchor="middle" font-size="11" fill="#555">controls disbursements</text>

  <rect x="570" y="115" width="200" height="70" rx="4" fill="#fde8e8" stroke="#991b1b" stroke-width="1.5"/>
  <text x="670" y="140" text-anchor="middle" font-size="13" font-weight="bold" fill="#991b1b">Testified at both</text>
  <text x="670" y="157" text-anchor="middle" font-size="13" font-weight="bold" fill="#991b1b">PC hearings</text>
  <text x="670" y="177" text-anchor="middle" font-size="11" fill="#555">Nov 5 + Dec 2, 2025</text>

  <!-- Japinga row -->
  <rect x="20" y="200" width="170" height="70" rx="6" fill="#7c3aed" stroke="#5b21b6" stroke-width="2"/>
  <text x="105" y="228" text-anchor="middle" font-size="15" font-weight="bold" fill="white">Steve Japinga</text>
  <text x="105" y="248" text-anchor="middle" font-size="11" fill="#d8b4fe">SVP Public Affairs</text>

  <rect x="210" y="200" width="160" height="70" rx="4" fill="#e8edf3" stroke="#1e3a5f" stroke-width="1.5"/>
  <text x="290" y="225" text-anchor="middle" font-size="13" font-weight="bold" fill="#1e3a5f">Business</text>
  <text x="290" y="242" text-anchor="middle" font-size="13" font-weight="bold" fill="#1e3a5f">Advocacy Lead</text>
  <text x="290" y="262" text-anchor="middle" font-size="11" fill="#555">gave to 5+ members</text>

  <rect x="390" y="200" width="160" height="70" rx="4" fill="#fef3e2" stroke="#b45309" stroke-width="1.5"/>
  <text x="470" y="225" text-anchor="middle" font-size="13" font-weight="bold" fill="#b45309">Operational</text>
  <text x="470" y="242" text-anchor="middle" font-size="13" font-weight="bold" fill="#b45309">Contact</text>
  <text x="470" y="262" text-anchor="middle" font-size="11" fill="#555">Chamber email on filings</text>

  <rect x="570" y="200" width="200" height="70" rx="4" fill="#fde8e8" stroke="#991b1b" stroke-width="1.5"/>
  <text x="670" y="225" text-anchor="middle" font-size="13" font-weight="bold" fill="#991b1b">Soft Edge letter</text>
  <text x="670" y="242" text-anchor="middle" font-size="13" font-weight="bold" fill="#991b1b">as "community member"</text>
  <text x="670" y="262" text-anchor="middle" font-size="11" fill="#555">+ Chamber support letter</text>

  <!-- Hovey row -->
  <rect x="20" y="285" width="170" height="70" rx="6" fill="#7c3aed" stroke="#5b21b6" stroke-width="2"/>
  <text x="105" y="313" text-anchor="middle" font-size="15" font-weight="bold" fill="white">Josh Hovey</text>
  <text x="105" y="333" text-anchor="middle" font-size="11" fill="#d8b4fe">Bellwether PR partner</text>

  <rect x="210" y="285" width="160" height="70" rx="4" fill="#e8edf3" stroke="#1e3a5f" stroke-width="1.5"/>
  <text x="290" y="310" text-anchor="middle" font-size="13" font-weight="bold" fill="#1e3a5f">Former Planning</text>
  <text x="290" y="327" text-anchor="middle" font-size="13" font-weight="bold" fill="#1e3a5f">Commissioner</text>
  <text x="290" y="347" text-anchor="middle" font-size="11" fill="#555">through Jun 2025</text>

  <rect x="390" y="285" width="160" height="70" rx="4" fill="#fef3e2" stroke="#b45309" stroke-width="1.5"/>
  <text x="470" y="318" text-anchor="middle" font-size="13" font-weight="bold" fill="#b45309">Committee</text>
  <text x="470" y="335" text-anchor="middle" font-size="13" font-weight="bold" fill="#b45309">Member</text>

  <rect x="570" y="285" width="200" height="70" rx="4" fill="#fde8e8" stroke="#991b1b" stroke-width="1.5"/>
  <text x="670" y="310" text-anchor="middle" font-size="13" font-weight="bold" fill="#991b1b">Developer's paid</text>
  <text x="670" y="327" text-anchor="middle" font-size="13" font-weight="bold" fill="#991b1b">PR representative</text>
  <text x="670" y="347" text-anchor="middle" font-size="11" fill="#555">lobbied former colleagues</text>

  <!-- Arrows connecting across -->
  <line x1="190" y1="150" x2="208" y2="150" stroke="#444" stroke-width="1.5"/>
  <line x1="370" y1="150" x2="388" y2="150" stroke="#444" stroke-width="1.5"/>
  <line x1="550" y1="150" x2="568" y2="150" stroke="#444" stroke-width="1.5"/>

  <line x1="190" y1="235" x2="208" y2="235" stroke="#444" stroke-width="1.5"/>
  <line x1="370" y1="235" x2="388" y2="235" stroke="#444" stroke-width="1.5"/>
  <line x1="550" y1="235" x2="568" y2="235" stroke="#444" stroke-width="1.5"/>

  <line x1="190" y1="320" x2="208" y2="320" stroke="#444" stroke-width="1.5"/>
  <line x1="370" y1="320" x2="388" y2="320" stroke="#444" stroke-width="1.5"/>
  <line x1="550" y1="320" x2="568" y2="320" stroke="#444" stroke-width="1.5"/>

  <!-- Source -->
  <text x="440" y="400" text-anchor="middle" font-size="11" fill="#6b7280">Sources: MiTN Committee 000516 | IRS 990 EIN 38-0745180 | CivicClerk events 7678, 7768 | bellwetherpr.com | Ingham County portal</text>
</svg>
